# AST/ASF file generated using VICON BodyLanguage
# -----------------------------------------------
:version 1.10
:name VICON
:units
  mass 1.0
  length 0.45
  angle deg
:documentation
   .ast/.asf automatically generated from VICON data using
   VICON BodyBuilder and BodyLanguage model FoxedUp or BRILLIANT.MOD
:root
   order TX TY TZ RX RY RZ
   axis XYZ
   position 0 0 0  
   orientation 0 0 0 
:bonedata
  begin
     id 1 
     name lhipjoint
     direction 0.671379 -0.66392 0.329334 
     length 2.38647 
     axis 0 0 0  XYZ
  end
  begin
     id 2 
     name lfemur
     direction 0.34202 -0.939693 0  
     length 6.48179  
     axis 0 0 20  XYZ
    dof rx ry rz
    limits (-160.0 20.0)
           (-70.0 70.0)
           (-60.0 70.0)
  end
  begin
     id 3 
     name ltibia
     direction 0.34202 -0.939693 0   
     length 6.86524   
     axis 0 0 20   XYZ
    dof rx
    limits (-10.0 170.0)
  end
  begin
     id 4 
     name lfoot
     direction 0.204886 -0.562919 0.800715   
     length 1.73031   
     axis -90 7.62852e-016 20   XYZ
    dof rx rz
    limits (-45.0 90.0)
           (-70.0 20.0)
  end
  begin
     id 5 
     name ltoes
     direction 1.53548e-011 -4.21841e-011 1   
     length 0.828161   
     axis -90 7.62852e-016 20   XYZ
    dof rx
    limits (-90.0 20.0)
  end
  begin
     id 6 
     name rhipjoint
     direction -0.662732 -0.670855 0.332775   
     length 2.3618  
     axis 0 0 0  XYZ 
  end
  begin
     id 7 
     name rfemur
     direction -0.34202 -0.939693 0   
     length 6.3025   
     axis 0 0 -20   XYZ
    dof rx ry rz
    limits (-160.0 20.0)
           (-70.0 70.0)
           (-70.0 60.0)
  end
  begin
     id 8 
     name rtibia
     direction -0.34202 -0.939693 0   
     length 6.8732   
     axis 0 0 -20   XYZ
    dof rx
    limits (-10.0 170.0)
 end
 begin
     id 9 
     name rfoot
     direction -0.173856 -0.477665 0.861168   
     length 1.54784  
     axis -90 -7.62852e-016 -20   XYZ
    dof rx rz
    limits (-45.0 90.0)
           (-20.0 70.0)
  end
  begin
     id 10 
     name rtoes
     direction -1.53562e-011 -4.21802e-011 1   
     length 0.759618   
     axis -90 -7.62852e-016 -20   XYZ
    dof rx
    limits (-90.0 20.0)
  end
  begin
     id 11 
     name lowerback
     direction -0.0278357 0.999497 -0.0151789   
     length 1.97203   
     axis 0 0 0   XYZ
    dof rx ry rz
    limits (-20.0 45.0)
           (-30.0 30.0)
           (-30.0 30.0)
  end
  begin
     id 12 
     name upperback
     direction -0.00360622 0.997542 0.0699804   
     length 1.94709   
     axis 0 0 0   XYZ
    dof rx ry rz
    limits (-20.0 45.0)
           (-30.0 30.0)
           (-30.0 30.0)
  end
  begin
     id 13 
     name thorax
     direction 0.00907706 0.997048 0.0762461   
     length 1.95722   
     axis 0 0 0   XYZ
    dof rx ry rz
    limits (-20.0 45.0)
           (-30.0 30.0)
           (-30.0 30.0)
  end
  begin
     id 14 
     name lowerneck
     direction -0.0481835 0.99872 -0.0153927   
     length 1.63078   
     axis 0 0 0   XYZ
    dof rx ry rz
    limits (-20.0 45.0)
           (-30.0 30.0)
           (-30.0 30.0)
  end
  begin
     id 15 
     name upperneck
     direction 0.0859716 0.979226 -0.183644   
     length 1.62591   
     axis 0 0 0   XYZ
    dof rx ry rz
    limits (-20.0 45.0)
           (-30.0 30.0)
           (-30.0 30.0)
  end
  begin
     id 16
     name head
     direction 0.0324821 0.997629 -0.0606773  
     length 1.64811  
     axis 0 0 0   XYZ
    dof rx ry rz
    limits (-20.0 45.0)
           (-30.0 30.0)
           (-30.0 30.0)
  end
  begin
     id 17 
     name lclavicle
     direction 0.939609 0.311019 0.142835  
     length 3.70647  
     axis 0 0 0   XYZ
    dof ry rz
    limits (-20.0 10.0)
           (0.0 20.0)
  end
  begin
     id 18 
     name lhumerus
     direction 1 -4.48963e-011 -1.59838e-027   
     length 4.59207   
     axis 180 -30 -90   XYZ
    dof rx ry rz
    limits (-60.0 90.0)
           (-90.0 90.0)
           (-90.0 90.0)
  end
  begin
     id 19
     name lradius
     direction 1 -4.48957e-011 -1.3483e-026   
     length 2.98109   
     axis 180 -30 -90   XYZ
    dof rx
    limits (-10.0 170.0)
  end
  begin
     id 20
     name lwrist
     direction 1 -4.48954e-011 -3.11579e-026   
     length 1.49055   
     axis 2.00652e-014 90 90   XYZ
    dof ry
    limits (-180.0 0.0)
 end
  begin
     id 21 
     name lhand
     direction 1 -4.4911e-011 -6.23158e-026   
     length 0.480203   
     axis 3.97628e-014 90 90   XYZ
    dof rx rz
    limits (-90.0 90.0)
           (-45.0 45.0)
  end
  begin
     id 22 
     name lfingers
     direction 1 -4.48893e-011 -1.24632e-025   
     length 0.387152   
     axis 7.95256e-014 90 90   XYZ
    dof rx
    limits (0.0 90.0)
  end
  begin
     id 23
     name lthumb
     direction 0.707107 -6.35013e-011 0.707107   
     length 0.555875   
     axis -90 45 2.85299e-015   XYZ
    dof rx rz
    limits (-45.0 45.0)
           (-45.0 45.0)
  end
  begin
     id 24 
     name rclavicle
     direction -0.950396 0.30392 0.0661859   
     length 3.70894  
     axis 0 0 0   XYZ 
    dof ry rz
    limits (-10.0 20.0)
           (-20.0 0.0)
  end
  begin
     id 25 
     name rhumerus
     direction -1 -4.48957e-011 -2.96677e-027  
     length 4.76508   
     axis 180 30 90   XYZ
    dof rx ry rz
    limits (-90.0 60.0)
           (-90.0 90.0)
           (-90.0 90.0)
  end
  begin
     id 26 
     name rradius
     direction -1 -4.48974e-011 -1.44501e-026   
     length 2.78902   
     axis 180 30 90   XYZ
    dof rx
    limits (-10.0 170.0)
  end
  begin
     id 27 
     name rwrist
     direction -1 -4.48978e-011 -3.11579e-026   
     length 1.39451   
     axis 2.00652e-014 -90 -90   XYZ
    dof ry
    limits (-180.0 0.0)
  end
  begin
     id 28
     name rhand
     direction -1 -4.48956e-011 -6.23158e-026   
     length 0.721303   
     axis 3.97628e-014 -90 -90   XYZ
    dof rx rz
    limits (-90.0 90.0)
           (-45.0 45.0)
  end
  begin
     id 29
     name rfingers
     direction -1 -4.4899e-011 -1.24632e-025   
     length 0.581533   
     axis 7.95256e-014 -90 -90   XYZ
    dof rx
    limits (0.0 90.0)
  end
  begin
     id 30
     name rthumb
     direction -0.707107 -6.34911e-011 0.707107   
     length 0.834968   
     axis -90 -45 -2.85299e-015   XYZ
    dof rx rz
    limits (-45.0 45.0)
           (-45.0 45.0)
  end
:hierarchy
  begin
    root lhipjoint rhipjoint lowerback
    lhipjoint lfemur
    lfemur ltibia
    ltibia lfoot
    lfoot ltoes
    rhipjoint rfemur
    rfemur rtibia
    rtibia rfoot
    rfoot rtoes
    lowerback upperback
    upperback thorax
    thorax lowerneck lclavicle rclavicle
    lowerneck upperneck
    upperneck head
    lclavicle lhumerus
    lhumerus lradius
    lradius lwrist
    lwrist lhand lthumb
    lhand lfingers
    rclavicle rhumerus
    rhumerus rradius
    rradius rwrist
    rwrist rhand rthumb
    rhand rfingers
  end

#!OML:ASF I:\salsa\salsa 7_09\Patient 1\Session 1\dancerfemale.ASF
:FULLY-SPECIFIED
:DEGREES
1036
root -9.75418 15.8654 4.67564 -97.8663 85.4061 -1176.19
lowerback 7.08041 3.55254 10.812
upperback -1.68744 5.61145 -2.57455
thorax -4.4777 2.44681 -9.38894
lowerneck -9.03263 -8.93869 -6.07978
upperneck 18.0082 -12.9685 9.92831
head 8.11705 -5.6036 2.94832
rclavicle 5.96354e-016 -1.35174e-014
rhumerus -22.7047 -25.3351 -92.3171
rradius 31.0828
rwrist 18.9431
rhand 7.93612 88.6667
rfingers 7.12502
rthumb 33.1663 61.7017
lclavicle 5.96354e-016 -1.35174e-014
lhumerus -21.4342 9.9924 63.3664
lradius 123.519
lwrist -17.8446
lhand -20.4823 -311.668
lfingers 7.12502
lthumb 5.8742 438.23
rfemur -24.0235 -18.3861 31.1072
rtibia 32.4349
rfoot -22.6651 13.5351
rtoes -21.9448
lfemur -4.37733 6.14242 -25.5086
ltibia 49.6692
lfoot -13.3196 0.51719
ltoes -50.8008
1037
root -9.46688 15.8408 4.67239 -82.0108 84.6988 -1160.55
lowerback 7.11624 3.54901 10.8651
upperback -2.07507 5.63885 -2.48574
thorax -4.91268 2.41136 -9.3521
lowerneck -8.71614 -8.67696 -5.86817
upperneck 18.884 -12.753 10.2124
head 8.33897 -5.42506 3.05034
rclavicle 3.63776e-014 -3.02153e-014
rhumerus -24.6876 -23.7211 -92.0276
rradius 31.704
rwrist 19.6923
rhand 8.28884 -90.0373
rfingers 7.12502
rthumb 33.5016 63.1443
lclavicle 3.63776e-014 -3.02153e-014
lhumerus -24.9249 13.3804 60.5459
lradius 125.207
lwrist -16.7654
lhand -21.0915 -313.672
lfingers 7.12502
lthumb 5.28602 436.242
rfemur -23.4932 -20.4944 32.0868
rtibia 32.8927
rfoot -24.9655 15.8605
rtoes -20.9111
lfemur -7.864 9.56325 -23.9285
ltibia 55.7368
lfoot -9.14634 -2.19721
ltoes -56.1165
1038
root -9.18205 15.818 4.67603 -71.0568 83.7983 -1149.94
lowerback 7.09885 3.57581 10.7186
upperback -2.46726 5.68447 -2.3889
thorax -5.33694 2.39319 -9.18956
lowerneck -8.76689 -8.45067 -5.61259
upperneck 19.9529 -12.5653 10.2886
head 8.6808 -5.25447 3.06039
rclavicle 1.58034e-014 2.62396e-014
rhumerus -26.4468 -22.0121 -91.7333
rradius 32.4669
rwrist 20.6229
rhand 7.94241 -91.0948
rfingers 7.12502
rthumb 33.1723 64.1311
lclavicle 1.58034e-014 2.62396e-014
lhumerus -27.9814 16.615 57.5469
lradius 126.636
lwrist -16.0167
lhand -22.0519 -316.053
lfingers 7.12502
lthumb 4.35869 433.882
rfemur -23.0105 -23.4272 33.0493
rtibia 33.0283
rfoot -27.3325 19.2403
rtoes -19.0066
lfemur -11.5456 12.9449 -22.3413
ltibia 61.6077
lfoot -4.74233 -5.03062
ltoes -57.585
1039
root -8.89919 15.7962 4.67831 -65.2688 82.452 -1144.52
lowerback 7.07313 3.65602 10.996
upperback -2.8029 5.84532 -2.20492
thorax -5.64305 2.42961 -9.17681
lowerneck -9.07795 -8.37021 -5.24128
upperneck 21.1157 -12.5723 10.1862
head 9.10641 -5.16849 2.9595
rclavicle 2.5842e-015 -8.74653e-015
rhumerus -27.842 -20.5283 -91.3559
rradius 33.1419
rwrist 21.9223
rhand 8.00018 -92.1475
rfingers 7.12502
rthumb 33.2272 65.1955
lclavicle 2.5842e-015 -8.74653e-015
lhumerus -30.4872 19.5301 54.6072
lradius 127.793
lwrist -15.5641
lhand -23.1901 -317.796
lfingers 7.12502
lthumb 3.25953 432.159
rfemur -22.0861 -25.6911 34.2277
rtibia 32.526
rfoot -29.315 21.7915
rtoes -17.5797
lfemur -15.3147 15.8858 -20.4064
ltibia 67.1709
lfoot -0.0387922 -7.58679
ltoes -59.9694
1040
root -8.61341 15.777 4.67057 -64.7365 80.7795 -1144.23
lowerback 7.00934 3.70325 11.9576
upperback -2.95644 6.02466 -1.88119
thorax -5.68248 2.4776 -9.38369
lowerneck -9.38091 -8.35322 -5.50148
upperneck 22.1334 -12.6981 10.7365
head 9.58951 -5.12405 3.17106
rclavicle 2.97183e-014 -2.22639e-014
rhumerus -28.8943 -19.3321 -90.8964
rradius 33.9263
rwrist 23.5868
rhand 8.76752 -93.3512
rfingers 7.12502
rthumb 33.9565 66.5578
lclavicle 2.97183e-014 -2.22639e-014
lhumerus -32.8008 21.8461 51.7137
lradius 128.839
lwrist -15.0595
lhand -25.2444 -318.929
lfingers 7.12502
lthumb 1.2755 431.047
rfemur -20.6127 -27.7651 35.6425
rtibia 31.4976
rfoot -30.8656 23.6721
rtoes -16.5452
lfemur -18.8317 17.8866 -18.0204
ltibia 72.1921
lfoot 4.31408 -10.1354
ltoes -61.8319
1041
root -8.32601 15.773 4.64785 -67.256 78.7305 -1146.68
lowerback 7.27536 3.57553 13.7383
upperback -3.05682 6.11049 -1.41225
thorax -5.82359 2.44217 -9.91465
lowerneck -9.314 -8.25177 -6.16525
upperneck 22.9363 -12.7019 11.6378
head 9.97657 -5.04049 3.60995
rclavicle 1.73937e-015 -5.56597e-015
rhumerus -29.9411 -17.8629 -90.5995
rradius 34.9589
rwrist 25.1237
rhand 9.28762 -94.5661
rfingers 7.12502
rthumb 34.4504 67.8835
lclavicle 1.73937e-015 -5.56597e-015
lhumerus -35.4249 23.5952 48.4871
lradius 129.88
lwrist -14.1933
lhand -27.6334 -319.629
lfingers 7.12502
lthumb -1.03182 430.349
rfemur -18.3038 -29.0077 37.0545
rtibia 30.0614
rfoot -31.7284 24.8969
rtoes -15.6381
lfemur -21.8312 19.0626 -14.9907
ltibia 76.4891
lfoot 8.25067 -13.1159
ltoes -63.1296
1042
root -8.05212 15.7421 4.61741 -69.7158 76.136 -1149.05
lowerback 8.17832 3.37327 16.2025
upperback -3.50796 6.35772 -0.818085
thorax -6.64117 2.37293 -10.783
lowerneck -8.80011 -8.11105 -6.91202
upperneck 23.7674 -12.6331 12.4946
head 10.2863 -4.94901 4.08891
rclavicle 1.62506e-014 -3.02153e-014
rhumerus -31.4988 -16.0256 -90.384
rradius 36.4242
rwrist 26.2797
rhand 9.79519 -95.725
rfingers 7.12502
rthumb 34.9321 69.1531
lclavicle 1.62506e-014 -3.02153e-014
lhumerus -38.6691 25.4654 45.0584
lradius 130.823
lwrist -13.1665
lhand -29.7579 -320.768
lfingers 7.12502
lthumb -3.08367 429.189
rfemur -15.8458 -28.6252 38.8268
rtibia 28.5479
rfoot -31.9353 25.0758
rtoes -15.5896
lfemur -24.8362 19.826 -11.432
ltibia 80.2498
lfoot 9.95312 -14.7881
ltoes -62.8568
